<svg xmlns="http://www.w3.org/2000/svg" viewBox="0 0 265.13 366.51"><defs><style>.cls-1{fill:#f2c83f;}.cls-2{fill:#4a371a;}.cls-3{fill:#cf9b75;}.cls-4{fill:#ffe2c7;}.cls-5{fill:#960027;}.cls-6{fill:#e0a551;}.cls-7{fill:#bc6f35;}.cls-8{fill:#6e3a22;}.cls-9{fill:#3d2d16;}.cls-10{fill:#d94b4b;}.cls-11{fill:#4a1a1a;}.cls-12{fill:#fcd744;}.cls-13{fill:#4a3d1a;}.cls-14{fill:#cc9725;}.cls-15{fill:#67ba23;}.cls-16{fill:#2d4a1a;}.cls-17{fill:#ebcd96;}.cls-18{fill:#6e5926;}</style></defs><title>eat-da-burger-bust</title><g id="Layer_2" data-name="Layer 2"><g id="Layer_1-2" data-name="Layer 1"><path class="cls-1" d="M59.65,365.51a1,1,0,0,1-.82-.42,1,1,0,0,1-.13-.9,84.85,84.85,0,0,1,160.72,0,1,1,0,0,1-.95,1.32Z"/><path class="cls-2" d="M139.06,307.57a83.84,83.84,0,0,1,79.41,56.94H59.65a83.83,83.83,0,0,1,79.41-56.94h0m0-2a85.78,85.78,0,0,0-81.31,58.3,2,2,0,0,0,.27,1.81,2,2,0,0,0,1.63.83H218.47a2,2,0,0,0,1.89-2.64,85.75,85.75,0,0,0-81.3-58.3Z"/><path class="cls-3" d="M139.06,325.3a14,14,0,0,1-14-14V290.83a1,1,0,0,1,1-1h26a1,1,0,0,1,1,1v20.46A14,14,0,0,1,139.06,325.3Z"/><path class="cls-2" d="M152.07,290.83v20.46a13,13,0,0,1-13,13h0a13,13,0,0,1-13-13V290.83h26m0-2h-26a2,2,0,0,0-2,2v20.46a15,15,0,1,0,30,0V290.83a2,2,0,0,0-2-2Z"/><path class="cls-4" d="M143.88,297.66a90.25,90.25,0,0,1-77.41-44.15L34.81,199.9a89.8,89.8,0,1,1,154.64-91.32l13.16,22.28c14.81,5.45,24.71,15.55,29.41,30,10.36,31.95,8.1,61.22-6.72,87a107,107,0,0,1-35.85,37.26,89.71,89.71,0,0,1-45.57,12.49Z"/><path class="cls-2" d="M112.05,65.43a88.76,88.76,0,0,1,76.54,43.66l13.34,22.59h0c7.81,2.82,22.73,9.78,29.14,29.53,24.07,74.23-27.72,114.59-42.13,123.1h0A88.76,88.76,0,0,1,67.33,253L35.67,199.39A88.8,88.8,0,0,1,67,77.78h0a88.33,88.33,0,0,1,45.06-12.35m0-2A90.81,90.81,0,0,0,34,200.4L65.61,254A90.76,90.76,0,0,0,190,286a108.12,108.12,0,0,0,36.21-37.63,98.21,98.21,0,0,0,12.48-37.6c1.88-15.9,0-32.79-5.68-50.2-4.77-14.69-14.75-25-29.68-30.55l-13-22a90.75,90.75,0,0,0-78.27-44.64Z"/><path class="cls-5" d="M214.05,161.55c2.07,5.84,20.26,39.84-19.83,67.81-33.12,23.1-73.59,13.22-78.86-8.77l1.23-4,93-55.16Z"/><path class="cls-6" d="M176.78,252a26.06,26.06,0,0,1-14.31-4.44l-49.78-32.8A25.67,25.67,0,0,1,102.09,201,18,18,0,0,1,104,185.58l2-3a1,1,0,0,1,.83-.45,1,1,0,0,1,.55.16l87.07,57.36a1.06,1.06,0,0,1,.43.64,1,1,0,0,1-.15.75L192.72,244c-3.33,5.06-9.14,8-15.93,8Z"/><path class="cls-2" d="M106.76,183.17l87.07,57.37-2,3c-3.25,4.94-8.91,7.51-15.09,7.51A25.17,25.17,0,0,1,163,246.72l-49.78-32.79c-10.3-6.79-14.07-19.23-8.43-27.8l2-3m0-2a1.83,1.83,0,0,0-.4.05,2,2,0,0,0-1.27.85l-2,3c-6.24,9.48-2.2,23.19,9,30.57l49.78,32.79A27.06,27.06,0,0,0,176.79,253c7.13,0,13.24-3.07,16.76-8.41l1.95-3a2.06,2.06,0,0,0,.29-1.51,2,2,0,0,0-.86-1.26L107.86,181.5a2.05,2.05,0,0,0-1.1-.33Z"/><path class="cls-7" d="M134.8,228.13,163,246.72c10.29,6.78,23.22,5.34,28.86-3.23l2-3-31.35-20.66C159.11,222,149.58,227.11,134.8,228.13Z"/><rect class="cls-8" x="93.87" y="199.72" width="121.92" height="13.79" rx="6.89" transform="translate(142.68 -51.29) rotate(34.15)"/><path class="cls-9" d="M199.56,244.85a7.93,7.93,0,0,1-4.42-1.35h0l-89.48-60.7a7.9,7.9,0,0,1,8.86-13.07L204,230.43a7.89,7.89,0,0,1-4.44,14.42Zm-3.3-3a5.89,5.89,0,1,0,6.62-9.75l-89.48-60.7a5.89,5.89,0,1,0-6.62,9.75l89.48,60.7Z"/><rect class="cls-10" x="115.86" y="180.45" width="51.51" height="4.24" rx="1.79" transform="translate(137.39 -48.45) rotate(36.75)"/><path class="cls-11" d="M160.62,200a2.82,2.82,0,0,1-1.67-.56l-38.4-28.68a2.8,2.8,0,0,1-.56-3.91l.39-.51a2.75,2.75,0,0,1,1.83-1.1,2.81,2.81,0,0,1,2.08.53l38.39,28.67h0a2.79,2.79,0,0,1,.57,3.91l-.39.52a2.8,2.8,0,0,1-1.84,1.1A2.69,2.69,0,0,1,160.62,200Zm-38-32.79h-.12a.77.77,0,0,0-.52.31l-.39.52a.78.78,0,0,0-.15.59.77.77,0,0,0,.31.52l38.4,28.68a.8.8,0,0,0,1.11-.16l.39-.52a.82.82,0,0,0,.15-.59.82.82,0,0,0-.32-.52h0l-38.39-28.68A.81.81,0,0,0,122.62,167.17Z"/><path class="cls-12" d="M205.34,234.16a1,1,0,0,1-.85-.46,5,5,0,0,0-1.4-1.48l-7.82-5.3c-1.73-1.17-4.83-1.76-9.22-1.76a97.63,97.63,0,0,0-10.28.71c-1.1.12-2,.22-2.72.27h-.26a3.19,3.19,0,0,1-2.8-1.62c-.41-.72-1-1.74-1.63-3-3.52-6.57-10.85-20.23-16.75-24.24l-38.42-26.05a4.94,4.94,0,0,0-1.89-.77,1,1,0,0,1-.44-1.76,5.2,5.2,0,0,1,3.24-1.19,4.32,4.32,0,0,1,2.48.76l88,59.69a4.81,4.81,0,0,1,1.72,5.48,1,1,0,0,1-.83.69Z"/><path class="cls-13" d="M114.1,168.53a3.41,3.41,0,0,1,1.92.58l88,59.7a3.8,3.8,0,0,1,1.32,4.35,5.9,5.9,0,0,0-1.69-1.76l-7.51-5.1-.31-.21c-2.2-1.49-5.91-1.93-9.78-1.93-5.18,0-10.65.8-13.08,1h-.17a2.18,2.18,0,0,1-1.94-1.12c-2.63-4.61-11.49-22.66-18.69-27.55l-.31-.21-38.11-25.85a6.07,6.07,0,0,0-2.26-.92,4.16,4.16,0,0,1,2.61-1m0-2a6.2,6.2,0,0,0-3.87,1.42,2,2,0,0,0-.68,2,2,2,0,0,0,1.57,1.48,3.87,3.87,0,0,1,1.51.6l38.11,25.85.31.21C156.74,202,164,215.51,167.48,222c.68,1.28,1.22,2.28,1.64,3a4.19,4.19,0,0,0,3.68,2.13l.32,0c.72,0,1.66-.15,2.75-.27a96.76,96.76,0,0,1,10.18-.7c5.22,0,7.59.86,8.65,1.59l.31.21,7.51,5.09a3.86,3.86,0,0,1,1.13,1.18,2,2,0,0,0,1.69.93h.26a2,2,0,0,0,1.65-1.39,5.8,5.8,0,0,0-2.1-6.61l-88-59.69a5.35,5.35,0,0,0-3-.93Z"/><path class="cls-14" d="M180.17,212.63a40.94,40.94,0,0,1-11.7,7c1,1.89,1.84,3.44,2.39,4.4a2.2,2.2,0,0,0,2.11,1.11c4.25-.31,17.72-2.53,22.86,1l.31.21,7.51,5.1a5.9,5.9,0,0,1,1.69,1.76,3.8,3.8,0,0,0-1.32-4.35Z"/><rect class="cls-10" x="161.55" y="212.18" width="51.51" height="4.24" rx="1.81" transform="translate(144.87 -67.14) rotate(32.58)"/><path class="cls-11" d="M207.31,230.26a2.79,2.79,0,0,1-1.51-.44L165.44,204a2.82,2.82,0,0,1-.85-3.88l.34-.52a2.8,2.8,0,0,1,3.87-.86l40.36,25.8h0a2.8,2.8,0,0,1,.85,3.87l-.33.53A2.82,2.82,0,0,1,207.31,230.26Zm-40-29.93-.17,0a.84.84,0,0,0-.51.35l-.33.53a.81.81,0,0,0,.24,1.11l40.36,25.8a.81.81,0,0,0,1.11-.25l.34-.53a.8.8,0,0,0-.25-1.11l-40.36-25.79A.83.83,0,0,0,167.29,200.33Z"/><rect class="cls-10" x="127.15" y="187.23" width="51.51" height="4.24" rx="1.51" transform="translate(152.41 -54.03) rotate(38.81)"/><path class="cls-11" d="M171.41,207.52a2.5,2.5,0,0,1-1.57-.55l-37.79-30.39a2.53,2.53,0,0,1-.38-3.53l.77-1a2.52,2.52,0,0,1,3.52-.38l37.79,30.39a2.51,2.51,0,0,1,.38,3.53l-.76,1a2.49,2.49,0,0,1-1.68.92Zm-37-34.35a.5.5,0,0,0-.4.19l-.76.95a.51.51,0,0,0,.08.71l37.79,30.39a.47.47,0,0,0,.37.11.47.47,0,0,0,.34-.19l.77-1a.51.51,0,0,0-.08-.71h0l-37.79-30.39A.56.56,0,0,0,134.39,173.17Z"/><path class="cls-15" d="M203.17,221.54a9.66,9.66,0,0,1-3.78-4.49,6.44,6.44,0,0,0-6.1-4,10.16,10.16,0,0,1-9.4-6.15,6.47,6.47,0,0,0-6.11-4,10.19,10.19,0,0,1-9.4-6.15,6.44,6.44,0,0,0-6.1-4,9.62,9.62,0,0,1-5.63-1.65,9.72,9.72,0,0,1-3.77-4.49,6.43,6.43,0,0,0-6.1-4,10.13,10.13,0,0,1-9.4-6.14,6.47,6.47,0,0,0-6.11-4,9.7,9.7,0,0,1-5.62-1.66,9.56,9.56,0,0,1-3.77-4.49,7.08,7.08,0,0,0-1.15-1.88,2.32,2.32,0,0,1-.13-2.83h0a2.16,2.16,0,0,1,3.38-.53,10.25,10.25,0,0,1,1.81,2.85,6.44,6.44,0,0,0,6.1,4,10.16,10.16,0,0,1,9.4,6.15,6.47,6.47,0,0,0,6.11,4,10.16,10.16,0,0,1,9.39,6.15,6,6,0,0,0,2.44,2.94,5.9,5.9,0,0,0,3.67,1.05,9.58,9.58,0,0,1,5.62,1.65,9.75,9.75,0,0,1,3.78,4.49,6.43,6.43,0,0,0,6.1,4,10.13,10.13,0,0,1,9.4,6.14,6.47,6.47,0,0,0,6.11,4,10.19,10.19,0,0,1,9.4,6.15,6.44,6.44,0,0,0,6.1,4,10.53,10.53,0,0,1,3.34.52,2.17,2.17,0,0,1,.88,3.31h0a2.33,2.33,0,0,1-2.65,1,7.33,7.33,0,0,0-2.19-.3A9.62,9.62,0,0,1,203.17,221.54Z"/><path class="cls-16" d="M211.64,224.61a3.3,3.3,0,0,1-1-.16,6,6,0,0,0-1.9-.25,11.16,11.16,0,0,1-10.27-6.72,5.47,5.47,0,0,0-5.23-3.42A11.16,11.16,0,0,1,183,207.34a5.45,5.45,0,0,0-5.23-3.42,11.17,11.17,0,0,1-10.27-6.71,5.46,5.46,0,0,0-5.23-3.43A11.17,11.17,0,0,1,152,187.07a5.46,5.46,0,0,0-5.23-3.43,11.13,11.13,0,0,1-10.28-6.71,4.93,4.93,0,0,0-2.07-2.54,5,5,0,0,0-3.16-.88A11.16,11.16,0,0,1,121,166.79a6,6,0,0,0-1-1.64,3.31,3.31,0,0,1-.23-4.05,3.49,3.49,0,0,1,2.57-1.58,2.93,2.93,0,0,1,2.39.92,11.24,11.24,0,0,1,2,3.1,5.44,5.44,0,0,0,5.23,3.42,11.16,11.16,0,0,1,10.28,6.72,4.87,4.87,0,0,0,2.07,2.53,4.93,4.93,0,0,0,3.16.89,11.16,11.16,0,0,1,10.27,6.72,5.47,5.47,0,0,0,5.23,3.42A11.17,11.17,0,0,1,173.2,194a5.46,5.46,0,0,0,5.23,3.43,10.59,10.59,0,0,1,6.15,1.82,10.7,10.7,0,0,1,4.13,4.89,4.93,4.93,0,0,0,2.07,2.54,4.86,4.86,0,0,0,3.16.88,11.16,11.16,0,0,1,10.27,6.72,5.44,5.44,0,0,0,5.23,3.42,11.79,11.79,0,0,1,3.64.57,2.93,2.93,0,0,1,1.8,1.82,3.45,3.45,0,0,1-.42,3A3.39,3.39,0,0,1,211.64,224.61Zm-89.06-63.1h-.09a1.42,1.42,0,0,0-1,.67,1.33,1.33,0,0,0,0,1.62,8.13,8.13,0,0,1,1.31,2.12,9.19,9.19,0,0,0,8.52,5.58,7.44,7.44,0,0,1,7,4.56,9.16,9.16,0,0,0,8.53,5.57,6.87,6.87,0,0,1,4.18,1.22,6.79,6.79,0,0,1,2.79,3.35,8.72,8.72,0,0,0,3.42,4.08,8.63,8.63,0,0,0,5.11,1.49,7.41,7.41,0,0,1,7,4.56,9.15,9.15,0,0,0,8.53,5.58,7.44,7.44,0,0,1,7,4.56,9.15,9.15,0,0,0,8.53,5.58,7.44,7.44,0,0,1,7,4.56,9.12,9.12,0,0,0,8.53,5.58,8.14,8.14,0,0,1,2.47.35,1.33,1.33,0,0,0,1.49-.62,1.43,1.43,0,0,0,.19-1.24.88.88,0,0,0-.56-.58,9.53,9.53,0,0,0-3-.46,6.8,6.8,0,0,1-4.18-1.21,6.91,6.91,0,0,1-2.8-3.35A8.58,8.58,0,0,0,199,211a8.74,8.74,0,0,0-5.11-1.5,7.44,7.44,0,0,1-7-4.56,9.16,9.16,0,0,0-8.53-5.57,6.91,6.91,0,0,1-4.19-1.22,6.84,6.84,0,0,1-2.78-3.34,9.15,9.15,0,0,0-8.53-5.58,7.48,7.48,0,0,1-7-4.56,9.15,9.15,0,0,0-8.53-5.58,7.43,7.43,0,0,1-7-4.56,9.19,9.19,0,0,0-8.53-5.58,7.43,7.43,0,0,1-7-4.56,9.63,9.63,0,0,0-1.64-2.6A.87.87,0,0,0,122.58,161.51Z"/><path class="cls-15" d="M131,157.68a9.61,9.61,0,0,1,3.31,4.84,5.91,5.91,0,0,0,2.14,3.16,5.83,5.83,0,0,0,3.55,1.41,10.17,10.17,0,0,1,8.75,7,6.42,6.42,0,0,0,5.68,4.57,10.18,10.18,0,0,1,8.75,7,6.45,6.45,0,0,0,5.68,4.58,10.14,10.14,0,0,1,8.75,7,5.94,5.94,0,0,0,2.13,3.16,5.85,5.85,0,0,0,3.55,1.41,10.14,10.14,0,0,1,8.75,7,6,6,0,0,0,2.13,3.17,5.9,5.9,0,0,0,3.55,1.4,10.14,10.14,0,0,1,8.75,7,7.18,7.18,0,0,0,1,2,2.32,2.32,0,0,1-.15,2.83h0a2.16,2.16,0,0,1-3.42.19,10.62,10.62,0,0,1-1.52-3,6.45,6.45,0,0,0-5.68-4.58,10.14,10.14,0,0,1-8.75-7,6.46,6.46,0,0,0-5.68-4.57,10.14,10.14,0,0,1-8.75-7,6,6,0,0,0-2.13-3.17,5.9,5.9,0,0,0-3.55-1.4,10.14,10.14,0,0,1-8.75-7,6,6,0,0,0-2.13-3.17,5.9,5.9,0,0,0-3.55-1.4,10.18,10.18,0,0,1-8.75-7,6.48,6.48,0,0,0-5.69-4.58,10.17,10.17,0,0,1-8.75-7,6,6,0,0,0-2.13-3.17,5.9,5.9,0,0,0-3.55-1.4,10.86,10.86,0,0,1-3.27-.84,2.17,2.17,0,0,1-.55-3.38h0a2.33,2.33,0,0,1,2.74-.76,6.77,6.77,0,0,0,2.14.51A9.67,9.67,0,0,1,131,157.68Z"/><path class="cls-16" d="M205.43,227.34h-.05a2.87,2.87,0,0,1-2.29-1.15,11.46,11.46,0,0,1-1.66-3.28,4.91,4.91,0,0,0-1.82-2.72,4.85,4.85,0,0,0-3.05-1.19,11.18,11.18,0,0,1-9.56-7.7,4.84,4.84,0,0,0-1.82-2.72,4.92,4.92,0,0,0-3.05-1.2A10.56,10.56,0,0,1,176.2,205a10.67,10.67,0,0,1-3.63-5.28,4.9,4.9,0,0,0-1.82-2.73,5,5,0,0,0-3.05-1.19,11.15,11.15,0,0,1-9.56-7.69,5.45,5.45,0,0,0-4.87-3.92,10.66,10.66,0,0,1-5.94-2.42,10.56,10.56,0,0,1-3.62-5.27,5.48,5.48,0,0,0-4.88-3.93,10.58,10.58,0,0,1-5.93-2.41,10.72,10.72,0,0,1-3.63-5.28,5.45,5.45,0,0,0-4.87-3.92,11.82,11.82,0,0,1-3.56-.92,2.92,2.92,0,0,1-1.61-2,3.44,3.44,0,0,1,.7-2.92,3.34,3.34,0,0,1,3.93-1,6,6,0,0,0,1.86.43,10.69,10.69,0,0,1,5.94,2.42,10.53,10.53,0,0,1,3.62,5.28,5.49,5.49,0,0,0,4.87,3.92,11.15,11.15,0,0,1,9.57,7.69,5.45,5.45,0,0,0,4.87,3.92,11.19,11.19,0,0,1,9.56,7.69,5.48,5.48,0,0,0,4.87,3.93,11.12,11.12,0,0,1,9.56,7.69,5.45,5.45,0,0,0,4.87,3.92,11.15,11.15,0,0,1,9.56,7.69,5.45,5.45,0,0,0,4.87,3.92,11.12,11.12,0,0,1,9.56,7.69,6.32,6.32,0,0,0,.82,1.73,3.34,3.34,0,0,1-.17,4.06A3.49,3.49,0,0,1,205.43,227.34ZM122.6,155.78a1.52,1.52,0,0,0-1.43,1.78.92.92,0,0,0,.5.63,9.62,9.62,0,0,0,3,.75,7,7,0,0,1,4.05,1.62,6.84,6.84,0,0,1,2.44,3.61,9.17,9.17,0,0,0,7.94,6.39,6.87,6.87,0,0,1,4,1.62,7,7,0,0,1,2.45,3.6,9.17,9.17,0,0,0,7.93,6.39,7.45,7.45,0,0,1,6.5,5.23,9.17,9.17,0,0,0,7.94,6.39,7.46,7.46,0,0,1,6.49,5.22,9.17,9.17,0,0,0,7.94,6.39,7.46,7.46,0,0,1,6.49,5.22,9.17,9.17,0,0,0,7.94,6.39,7.43,7.43,0,0,1,6.49,5.23,9.69,9.69,0,0,0,1.38,2.75.89.89,0,0,0,.72.35,1.63,1.63,0,0,0,1.12-.57,1.34,1.34,0,0,0,.13-1.61,8,8,0,0,1-1.1-2.24,9.17,9.17,0,0,0-7.93-6.39,7.42,7.42,0,0,1-6.5-5.22,9.17,9.17,0,0,0-7.93-6.39,7.46,7.46,0,0,1-6.5-5.22,9.17,9.17,0,0,0-7.94-6.39,7.46,7.46,0,0,1-6.49-5.23,9.14,9.14,0,0,0-7.94-6.38,6.94,6.94,0,0,1-4.05-1.62,6.84,6.84,0,0,1-2.44-3.61,9.17,9.17,0,0,0-7.94-6.39,7.46,7.46,0,0,1-6.5-5.22,9.17,9.17,0,0,0-7.94-6.39,8,8,0,0,1-2.42-.6A1.12,1.12,0,0,0,122.6,155.78Z"/><path class="cls-6" d="M205.69,221.88a6.24,6.24,0,0,1-4.1-1.53l-70.82-61.44a6.26,6.26,0,0,1-.63-8.82c7.69-8.86,18.92-13.74,31.63-13.74s25.69,5,36.12,14l2.67,2.31a55.57,55.57,0,0,1,18.95,33.5c1.88,12.69-1.35,24.59-9.1,33.53a6.24,6.24,0,0,1-4.72,2.15Z"/><path class="cls-2" d="M161.77,137.35c12.08,0,24.88,4.61,35.47,13.79l2.66,2.31c21,18.23,25.38,47.61,9.75,65.62a5.25,5.25,0,0,1-7.4.53l-70.83-61.45a5.24,5.24,0,0,1-.52-7.4c7.75-8.94,19-13.4,30.87-13.4m0-2c-13,0-24.5,5-32.38,14.09a7.25,7.25,0,0,0,.72,10.22l70.83,61.45a7.26,7.26,0,0,0,10.23-.73c7.94-9.15,11.26-21.35,9.33-34.33a56.59,56.59,0,0,0-19.29-34.11l-2.66-2.31c-10.61-9.21-23.68-14.28-36.78-14.28Z"/><path class="cls-17" d="M160.36,154.86c-.46-.4-1.84.45-2.24.91s-.19,1,.27,1.36,1,.54,1.39.08S160.82,155.26,160.36,154.86Z"/><path class="cls-17" d="M177.61,160.3c-.6,0-1.09,1.55-1.09,2.16s.49.84,1.1.84,1.1-.24,1.1-.85S178.22,160.3,177.61,160.3Z"/><path class="cls-17" d="M190.28,162.89c-.29.54.85,1.7,1.38,2s1,0,1.27-.57.31-1.09-.23-1.37S190.57,162.35,190.28,162.89Z"/><path class="cls-7" d="M206.46,160.14c0,12.63-8.25,33.71-21.62,44.36l17.41,15.1a5.24,5.24,0,0,0,7.4-.53C223.49,203.13,221.64,178.28,206.46,160.14Z"/><path class="cls-17" d="M164,147.23c.56-.25.38-1.87.14-2.42s-.79-.58-1.35-.33-.91.65-.67,1.21S163.46,147.47,164,147.23Z"/><path class="cls-17" d="M199.66,187.72c.12-.6-1.3-1.39-1.9-1.51s-.93.32-1,.91,0,1.13.61,1.25S199.54,188.31,199.66,187.72Z"/><path class="cls-17" d="M211,195.6c-.56.24-.4,1.86-.16,2.42s.79.58,1.35.34.92-.65.68-1.21S211.58,195.36,211,195.6Z"/><path class="cls-17" d="M195.89,177.91c.58.19,1.51-1.14,1.7-1.72s-.22-1-.8-1.14-1.12-.11-1.3.47S195.31,177.73,195.89,177.91Z"/><path class="cls-17" d="M205.72,170.7c.61.05,1.24-1.45,1.29-2s-.41-.89-1-.94-1.12.13-1.17.74S205.11,170.64,205.72,170.7Z"/><path class="cls-17" d="M180.29,178.81c.61.06,1.24-1.44,1.29-2.05s-.41-.89-1-.94-1.12.14-1.17.74S179.68,178.76,180.29,178.81Z"/><path class="cls-17" d="M183.75,150.65c.27-.55-.9-1.67-1.45-1.94s-1,.07-1.24.62-.28,1.09.27,1.36S183.49,151.2,183.75,150.65Z"/><path class="cls-4" d="M213.87,160.67c2.08,5.84,20.44,40.72-19.65,68.69-33.12,23.1-73.59,13.22-78.86-8.77l-33.51,50.9a88.83,88.83,0,0,0,107.09,12.82h0a88.82,88.82,0,0,0,41.36-96.56L219.16,163Z"/><path class="cls-3" d="M133.64,68.09c-.65.37-1.31.75-2,1.16C95.43,91,36,127.36,36,127.36c25.77,2.35,59,1.25,89.09-14.89a198.3,198.3,0,0,0,40.57-29.12A88.94,88.94,0,0,0,133.64,68.09Z"/><path class="cls-2" d="M44.09,213.63c-14.24-27.73,5.66-36.28,18.11-14.52,9.62,16.81,17.13,10.65,17.13,10.65s-56.84-73.13-23.78-81.38c20.84-5.2,82.82-24.63,104.34-59.88S158,9,158,9s2.31,7.31-.21,11.39c0,0-3.8-13.78-12.73-19.35a19.29,19.29,0,0,1-3.14,12.6s-6-11.46-12.82-11.41c0,0,5.31,18.76-14.45,30s-96.87,28-96.87,74.68c-33.27,14.19-8.91,68.19,3.91,85.22C35.7,210.74,44.09,213.63,44.09,213.63Z"/><path class="cls-2" d="M44.09,214.63a1,1,0,0,1-.33,0c-.35-.12-8.83-3.2-22.91-21.9-9.73-12.92-25.45-46.2-19.57-68.24A26.71,26.71,0,0,1,16.75,106.2c.54-36.8,47-54.71,77.84-66.59,8.21-3.16,15.29-5.9,19.53-8.3,18.81-10.7,14.18-28.11,14-28.84a1,1,0,0,1,.17-.88,1,1,0,0,1,.79-.39c5.85-.05,10.91,7.24,12.87,10.46A18.68,18.68,0,0,0,144,1.14a1,1,0,0,1,.44-1,1,1,0,0,1,1.07,0c6.73,4.2,10.6,12.7,12.24,17.13a21,21,0,0,0-.78-8,1,1,0,0,1,.44-1.16,1,1,0,0,1,1.23.17c.24.25,23.73,25.26,2.06,60.75-23.9,39.15-96.73,58.28-105,60.33-4.56,1.14-7.42,3.55-8.74,7.38-7.06,20.43,32.67,71.9,33.07,72.42a1,1,0,0,1-.16,1.39,7.32,7.32,0,0,1-5.78,1.18c-4.38-.81-8.71-4.88-12.84-12.12-5.89-10.28-13.23-13.35-17.45-11.07S38,199.61,45,213.18a1,1,0,0,1-.14,1.11A1,1,0,0,1,44.09,214.63ZM130.31,3.33c.78,4.69,1.83,20-15.2,29.72-4.37,2.48-11.52,5.23-19.8,8.43C64.82,53.23,18.74,71,18.74,106.86a1,1,0,0,1-.61.92A24.82,24.82,0,0,0,3.22,125c-5.72,21.38,9.7,53.88,19.22,66.52,9.2,12.21,16,17.59,19.4,19.81-6-13.24-3.91-21.79,1.1-24.51s13.61.44,20.13,11.84c4.75,8.29,8.83,10.63,11.41,11.13a5.79,5.79,0,0,0,3.36-.28c-5.57-7.31-39.64-53.24-32.68-73.38,1.54-4.46,5-7.37,10.14-8.67,8.15-2,80.25-21,103.74-59.43,16.69-27.34,6.09-47.67.73-55.18.31,2.53.28,5.73-1.17,8.08a1,1,0,0,1-1,.46,1,1,0,0,1-.82-.72c0-.12-3.33-11.76-10.66-17.61a19.89,19.89,0,0,1-3.43,11.16,1,1,0,0,1-.88.43,1,1,0,0,1-.82-.53C140.94,14,135.92,4.58,130.31,3.33Z"/><line class="cls-4" x1="71.48" y1="141.96" x2="95.9" y2="123.97"/><rect class="cls-2" x="68.52" y="128.96" width="30.33" height="8" transform="translate(-62.57 75.58) rotate(-36.39)"/><line class="cls-4" x1="164.25" y1="87.18" x2="136.69" y2="99.88"/><rect class="cls-2" x="135.3" y="89.53" width="30.34" height="8" transform="translate(-25.33 71.55) rotate(-24.74)"/><path class="cls-2" d="M153.35,243.57a55,55,0,0,1-19.52-3.4c-10.35-3.94-17.44-11-19.44-19.35a1,1,0,0,1,2-.46c1.84,7.7,8.48,14.24,18.2,17.94,17.74,6.74,40.94,2.91,59.1-9.76,24.15-16.84,30.83-38.76,19.88-65.13-.32-.78-.58-1.41-.74-1.86a1,1,0,1,1,1.88-.67c.15.43.4,1,.71,1.76,1.86,4.48,6.21,15,5.28,27.39-1.14,15.47-9.85,29-25.86,40.15A73.7,73.7,0,0,1,153.35,243.57Z"/><path class="cls-2" d="M90,170.12a2.35,2.35,0,0,0,1-1.24,15.09,15.09,0,0,1,17-10.06,2.28,2.28,0,0,0,1.59-.31h0a2.28,2.28,0,0,0,0-3.9,15.1,15.1,0,0,0-23.12,13.65A2.28,2.28,0,0,0,90,170.12Z"/><path class="cls-2" d="M157.56,130.23a2.33,2.33,0,0,0,1-1.25,15.06,15.06,0,0,1,17-10,2.34,2.34,0,0,0,1.59-.31h0a2.28,2.28,0,0,0,0-3.9,15.1,15.1,0,0,0-23.12,13.65,2.28,2.28,0,0,0,3.43,1.86Z"/><path class="cls-3" d="M65.17,217c.27,3.1-4.87,9.34-11.32,13.2l8.82,14.93C81.39,236.87,64.75,212.23,65.17,217Z"/><path class="cls-4" d="M49.51,191.63c-4.67-1.27-20.15-1.69-19.49,14.62s25.24,36.88,35.91,24.21c4.49-5.34,3.48-9.31,3.48-9.31"/><path class="cls-2" d="M57.37,235.39a17.75,17.75,0,0,1-5.74-1C41.35,230.85,29.5,218.09,29,206.29c-.23-5.76,1.44-10.1,5-12.9,5.4-4.3,13.23-3.42,15.79-2.72a1,1,0,0,1,.7,1.23,1,1,0,0,1-1.23.7c-3.17-.87-9.79-1-14,2.36-3,2.38-4.4,6.16-4.2,11.25.4,9.9,10.73,22.66,21.26,26.26,3.77,1.29,9.07,1.87,12.89-2.66,4-4.81,3.3-8.28,3.26-8.42a1,1,0,0,1,.74-1.2,1,1,0,0,1,1.2.71c0,.19,1.09,4.54-3.67,10.2A11.78,11.78,0,0,1,57.37,235.39Z"/><path class="cls-3" d="M188.94,284.31h0A88.71,88.71,0,0,0,211.79,265C171.54,299.2,89.44,287.63,68.44,235.44a45.06,45.06,0,0,1-7.17,7.3L67.33,253A88.79,88.79,0,0,0,188.94,284.31Z"/><path class="cls-18" d="M98,47.86c11.26-3.16,27.92-9,32.28-16.26a1.61,1.61,0,0,1,2.79,0c1.67,3,2.56,8.38-7.22,14.16-12.28,7.25-27.49,7-40.14,11.79a1.63,1.63,0,0,1-1.53-2.84A44.12,44.12,0,0,1,98,47.86Z"/><path class="cls-18" d="M140.53,44.45a15.47,15.47,0,0,0,3-8,.57.57,0,0,1,1-.32c1.1,1.23,2.6,3.49,1.18,5.6a11.76,11.76,0,0,1-4.48,3.53A.56.56,0,0,1,140.53,44.45Z"/><path class="cls-2" d="M110.69,225.13a4.46,4.46,0,0,1-.63,0,1,1,0,1,1,.32-2c2.26.37,4.6-3.57,5-5.76a1,1,0,0,1,2,.32C116.88,220.35,114.2,225.13,110.69,225.13Z"/><path class="cls-2" d="M210.86,162.64a7.47,7.47,0,0,1-2.61-.49,1,1,0,0,1,.7-1.87,4.56,4.56,0,0,0,3.69-.06,2.42,2.42,0,0,0,1.23-1.67,1,1,0,0,1,2,.4,4.46,4.46,0,0,1-2.22,3A5.74,5.74,0,0,1,210.86,162.64Z"/><path class="cls-4" d="M237.26,202.28a1,1,0,0,1-.85-.47,1,1,0,0,1-.06-1c.79-1.67,1.61-3.19,2.35-4.52a29.84,29.84,0,0,0,2.8-6.15v0a19.86,19.86,0,0,0,.5-2.3.9.9,0,0,1,.08-.28,4.23,4.23,0,0,1,3.74-2.68,4.09,4.09,0,0,1,3.37,2,3.81,3.81,0,0,1,6.73,0,4.08,4.08,0,0,1,3.37-2c2.39,0,4.34,2.46,4.36,5.49a1.27,1.27,0,0,1,0,.2,39.32,39.32,0,0,1-3.2,11.1,1,1,0,0,1-.91.59Z"/><path class="cls-2" d="M259.3,185.9c1.85,0,3.36,2,3.36,4.55h0a38.69,38.69,0,0,1-3.12,10.83H237.26c.76-1.64,1.56-3.1,2.31-4.47a31.11,31.11,0,0,0,2.89-6.35h0v0A21.26,21.26,0,0,0,243,188a3.27,3.27,0,0,1,2.83-2.11c1.86,0,3.37,2,3.37,4.55,0-2.51,1.5-4.55,3.36-4.55s3.37,2,3.37,4.55c0-2.51,1.51-4.55,3.37-4.55m0-2a4.82,4.82,0,0,0-3.37,1.41,4.72,4.72,0,0,0-6.73,0,4.84,4.84,0,0,0-3.37-1.41,5.21,5.21,0,0,0-4.64,3.26,1.7,1.7,0,0,0-.17.54,18.35,18.35,0,0,1-.47,2.17v0a29.41,29.41,0,0,1-2.72,5.95c-.74,1.35-1.58,2.87-2.38,4.58a2,2,0,0,0,1.82,2.85h22.28a2,2,0,0,0,1.82-1.18,40.48,40.48,0,0,0,3.28-11.37,1.62,1.62,0,0,0,0-.38c0-3.63-2.38-6.45-5.36-6.45Z"/><path class="cls-1" d="M233.4,365.51a1,1,0,0,1-1-1c0-11.84,3.49-18.22,6.3-23.34,2.25-4.12,3.61-6.61,3.61-12.87s-1.36-8.75-3.61-12.87c-2.81-5.12-6.3-11.5-6.3-23.34s3.49-18.22,6.29-23.34c2.26-4.12,3.62-6.61,3.62-12.87S241,247.13,238.7,243c-2.81-5.12-6.3-11.5-6.3-23.34a41.81,41.81,0,0,1,3.95-18.82,1,1,0,0,1,.91-.57h22.28a1,1,0,0,1,.91,1.41c-.87,1.92-1.8,3.62-2.62,5.11-2.25,4.12-3.61,6.61-3.61,12.87s1.36,8.75,3.61,12.87c2.81,5.12,6.3,11.5,6.3,23.34s-3.49,18.22-6.3,23.34c-2.25,4.12-3.61,6.61-3.61,12.87s1.36,8.75,3.61,12.86c2.81,5.13,6.3,11.51,6.3,23.35s-3.49,18.22-6.3,23.34c-2.25,4.12-3.61,6.61-3.61,12.87a1,1,0,0,1-1,1Z"/><path class="cls-2" d="M259.54,201.28h0m0,0c-.85,1.87-1.75,3.52-2.58,5-2.25,4.12-3.74,6.83-3.74,13.35S254.71,228.9,257,233c2.75,5,6.17,11.27,6.17,22.86s-3.42,17.84-6.17,22.86c-2.25,4.11-3.74,6.83-3.74,13.35s1.49,9.23,3.74,13.35c2.75,5,6.17,11.27,6.17,22.86s-3.42,17.84-6.17,22.86c-2.25,4.11-3.74,6.83-3.74,13.35H233.4c0-11.59,3.42-17.84,6.17-22.86,2.25-4.12,3.74-6.83,3.74-13.35s-1.49-9.24-3.74-13.35c-2.75-5-6.17-11.28-6.17-22.86s3.42-17.84,6.17-22.86c2.25-4.12,3.74-6.83,3.74-13.35s-1.49-9.24-3.74-13.35c-2.75-5-6.17-11.27-6.17-22.86a41.13,41.13,0,0,1,3.86-18.39h22.28m0-2H237.26a2,2,0,0,0-1.82,1.15,43.37,43.37,0,0,0-4,19.24c0,12.1,3.56,18.6,6.42,23.82,2.18,4,3.49,6.38,3.49,12.39s-1.31,8.41-3.49,12.38c-2.86,5.23-6.42,11.73-6.42,23.83s3.56,18.6,6.42,23.82c2.18,4,3.49,6.38,3.49,12.39s-1.31,8.41-3.49,12.39c-2.86,5.22-6.42,11.72-6.42,23.82a2,2,0,0,0,2,2h19.82a2,2,0,0,0,2-2c0-6,1.31-8.41,3.49-12.39,2.86-5.22,6.42-11.72,6.42-23.82s-3.56-18.6-6.42-23.82c-2.18-4-3.49-6.39-3.49-12.39s1.31-8.41,3.49-12.39c2.86-5.22,6.42-11.72,6.42-23.82s-3.56-18.6-6.42-23.82c-2.18-4-3.49-6.38-3.49-12.39s1.31-8.41,3.49-12.39c.82-1.49,1.74-3.17,2.61-5.09a2,2,0,0,0,.22-.91,2,2,0,0,0-2-2Zm0,4Z"/><path class="cls-4" d="M18.58,202.28a1,1,0,0,1-.91-.59,39.67,39.67,0,0,1-3.21-11.1.67.67,0,0,1,0-.2c0-3,2-5.49,4.36-5.49a4.09,4.09,0,0,1,3.37,2,4.08,4.08,0,0,1,3.36-2,4.08,4.08,0,0,1,3.37,2,4.08,4.08,0,0,1,3.36-2A4.23,4.23,0,0,1,36,187.58a.92.92,0,0,1,.09.28,19.86,19.86,0,0,0,.5,2.3v0a29.55,29.55,0,0,0,2.8,6.15c.73,1.33,1.56,2.85,2.35,4.52a1,1,0,0,1-.91,1.43Z"/><path class="cls-2" d="M32.28,185.9A3.28,3.28,0,0,1,35.12,188a19.31,19.31,0,0,0,.53,2.42v0h0a30.52,30.52,0,0,0,2.88,6.35c.75,1.37,1.55,2.83,2.32,4.47H18.58a38.67,38.67,0,0,1-3.13-10.83h0c0-2.51,1.51-4.55,3.37-4.55s3.37,2,3.37,4.55c0-2.51,1.5-4.55,3.36-4.55s3.37,2,3.37,4.55c0-2.51,1.51-4.55,3.36-4.55m0-2a4.82,4.82,0,0,0-3.36,1.41,4.72,4.72,0,0,0-6.73,0,4.84,4.84,0,0,0-3.37-1.41c-3,0-5.32,2.83-5.36,6.45a1.6,1.6,0,0,0,0,.38,40.49,40.49,0,0,0,3.29,11.37,2,2,0,0,0,1.82,1.18H40.86a2,2,0,0,0,1.81-2.85c-.8-1.71-1.63-3.23-2.37-4.58a28.87,28.87,0,0,1-2.72-5.95v0a17.29,17.29,0,0,1-.47-2.17,2,2,0,0,0-.17-.54,5.21,5.21,0,0,0-4.65-3.26Z"/><path class="cls-1" d="M24.9,365.51a1,1,0,0,1-1-1c0-6.26-1.36-8.75-3.62-12.87-2.8-5.12-6.29-11.5-6.29-23.34s3.49-18.22,6.29-23.34c2.26-4.12,3.62-6.61,3.62-12.87s-1.36-8.75-3.62-12.87c-2.8-5.12-6.29-11.5-6.29-23.34s3.49-18.22,6.29-23.34c2.26-4.12,3.62-6.61,3.62-12.87s-1.36-8.75-3.62-12.87c-.82-1.49-1.75-3.19-2.61-5.11a1,1,0,0,1,.07-.95,1,1,0,0,1,.84-.46H40.86a1,1,0,0,1,.91.57,42,42,0,0,1,3.95,18.82c0,11.84-3.49,18.22-6.3,23.34-2.25,4.12-3.61,6.61-3.61,12.87s1.36,8.75,3.61,12.86c2.81,5.13,6.3,11.51,6.3,23.35s-3.49,18.22-6.3,23.34c-2.25,4.12-3.61,6.61-3.61,12.87s1.36,8.75,3.61,12.87c2.81,5.12,6.3,11.5,6.3,23.34a1,1,0,0,1-1,1Z"/><path class="cls-2" d="M40.86,201.28a41.14,41.14,0,0,1,3.85,18.39c0,11.59-3.42,17.84-6.17,22.86-2.25,4.11-3.73,6.83-3.73,13.35s1.48,9.23,3.73,13.35c2.75,5,6.17,11.27,6.17,22.86S41.29,309.93,38.54,315c-2.25,4.11-3.73,6.83-3.73,13.35s1.48,9.23,3.73,13.35c2.75,5,6.17,11.27,6.17,22.86H24.9c0-6.52-1.49-9.24-3.74-13.35-2.75-5-6.17-11.27-6.17-22.86s3.42-17.84,6.17-22.86c2.25-4.12,3.74-6.83,3.74-13.35s-1.49-9.24-3.74-13.35c-2.75-5-6.17-11.27-6.17-22.86S18.41,238,21.16,233c2.25-4.12,3.74-6.83,3.74-13.35s-1.49-9.23-3.74-13.35c-.84-1.52-1.74-3.17-2.58-5H40.86m0-2H18.58a2,2,0,0,0-1.82,2.82c.88,2,1.82,3.67,2.64,5.18,2.18,4,3.5,6.38,3.5,12.39s-1.32,8.41-3.5,12.39C16.55,237.28,13,243.78,13,255.88s3.56,18.6,6.41,23.82c2.18,4,3.5,6.38,3.5,12.39s-1.32,8.41-3.49,12.38C16.55,309.7,13,316.2,13,328.3s3.56,18.6,6.41,23.82c2.18,4,3.5,6.38,3.5,12.39a2,2,0,0,0,2,2H44.71a2,2,0,0,0,2-2c0-12.1-3.55-18.6-6.41-23.82-2.18-4-3.49-6.38-3.49-12.39s1.31-8.41,3.49-12.39c2.86-5.22,6.41-11.72,6.41-23.82s-3.55-18.6-6.41-23.82c-2.18-4-3.49-6.39-3.49-12.39s1.31-8.41,3.49-12.39c2.86-5.22,6.41-11.72,6.41-23.82a43.23,43.23,0,0,0-4-19.24,2,2,0,0,0-1.81-1.15Z"/></g></g></svg>